<svg xmlns="http://www.w3.org/2000/svg" width="40" height="40" viewBox="0 0 40 40">
  <path fill="currentColor" d="M0.1953125,35.3125 C0.1953125,35.3125 0.1953125,39.8046875 0.1953125,39.8046875 C0.1953125,39.8046875 40,39.8046875 40,39.8046875 C40,39.8046875 40,35.3125 40,35.3125 C40,35.3125 0.1953125,35.3125 0.1953125,35.3125 Z M6.875,13.75 C6.875,13.75 3.359375,13.75 3.359375,13.75 C3.359375,13.75 3.359375,30.9765625 3.359375,30.9765625 C3.359375,30.9765625 36.71875,30.9765625 36.71875,30.9765625 C36.71875,30.9765625 36.71875,13.75 36.71875,13.75 C36.71875,13.75 32.7734375,13.75 32.7734375,13.75 C32.7734375,13.75 29.9609375,3.90625 29.9609375,3.90625 C29.9609375,3.90625 39.84375,3.90625 39.84375,3.90625 C39.84375,3.90625 39.84375,0 39.84375,0 C39.84375,0 0,0 0,0 C0,0 0,3.90625 0,3.90625 C0,3.90625 9.84375,3.90625 9.84375,3.90625 C9.84375,3.90625 6.875,13.75 6.875,13.75 Z M15.46875,3.90625 C15.46875,3.90625 24.3359375,3.90625 24.3359375,3.90625 C24.3359375,3.90625 27.1484375,13.75 27.1484375,13.75 C27.1484375,13.75 12.5,13.75 12.5,13.75 C12.5,13.75 15.46875,3.90625 15.46875,3.90625 Z M10.078125,18.28125 C10.078125,18.28125 30.1953125,18.28125 30.1953125,18.28125 C30.1953125,18.28125 30.1953125,26.5234375 30.1953125,26.5234375 C30.1953125,26.5234375 10.078125,26.5234375 10.078125,26.5234375 C10.078125,26.5234375 10.078125,18.28125 10.078125,18.28125 Z" transform="matrix(1 0 0 -1 0 39.805)"/>
</svg>
